# xmcd CD database file
#
# Track frame offsets:
#	150
#	9660
#	21288
#	31913
#	44098
#	52939
#
# Disc length: 875 seconds
#
# Revision: 1
# Processed by: cddbd v1.5.2PL0 Copyright (c) Steve Scherf et al.
# Submitted via: CDex 1.70beta2
#
DISCID=45036906
DTITLE=Tessa Smith - Tessa and Gav
DYEAR=2010
DGENRE=Jazz
TTITLE0=Winter Wonderland
TTITLE1=Santa Baby
TTITLE2=Let It Snow
TTITLE3=Merry Christmas Baby
TTITLE4=Santa Claus is Coming to Town
TTITLE5=Have Yourself a Merry Little Christmas
EXTD=YEAR: 2010
EXTT0=
EXTT1=
EXTT2=
EXTT3=
EXTT4=
EXTT5=
PLAYORDER=
